<?xml version="1.0" encoding="UTF-8"?>
<svg id="Layer_1" xmlns="http://www.w3.org/2000/svg" version="1.1" viewBox="0 0 1027 1057">
  <!-- Generator: Adobe Illustrator 29.6.1, SVG Export Plug-In . SVG Version: 2.1.1 Build 9)  -->
  <defs>
    <style>
      .st0 {
        fill: #011f51;
      }
    </style>
  </defs>
  <path class="st0" d="M483.33,23.33c356.45-18.88,602.77,321.81,503.19,658.41-50.2,169.69-192.73,302.19-365.41,340.83C333.69,1086.87,56.45,881.8,21.88,592.86-12.03,309.36,192.75,38.72,483.33,23.33ZM314.44,422.44c76.88-144.48,279.04-161.88,379.04-30.67,4.83,6.34,15.72,26.8,19.46,30.01,2.03,1.74,12.63,5.77,16.04,7.24,34,14.65,71.11,28.33,106.2,40.29,15.99,5.45,59.06,21.47,73.74,20.34,31.83-2.45,22.89-40,18.63-60.32-30.45-145.19-142.69-270.37-283.74-315.79C407.06,37.33,154.64,183.89,100.81,424.66c-4.27,19.09-13.75,48.87,6.62,61.31,13.03,7.96,34.98-.64,48.95-4.78,53.56-15.87,106.22-38.17,158.06-58.76ZM496.92,339.59c-135.14,10.04-214.54,159.48-151.65,279.12,57.42,109.23,191.79,133.7,289.5,60.51,2.52-1.89,7.94-7.48,10.05-8.38,4.93-2.1,16.71-.66,22.35-1.91,1.55-.34,5.37-2.95,6.5-4.17,8.26-8.9-.32-21.03,2.19-30.8.69-2.66,5.28-8.68,6.71-11.72,65.42-138.66-29.93-294.23-185.64-282.65ZM138.95,575.33c-64.72,5.26-36.71,75.25-21.89,113.48,44.23,114.09,143.54,214.15,259.81,254.35,15.13,5.23,43.06,14.48,58.19,10.75,20.78-5.12,31.1-24.08,30.03-44.65-6.88-37.65-10.18-77.65-19.08-114.79-15.74-65.72-53.28-65-94.92-105.89-35.94-35.28-40.71-72.37-91-94.29-32.59-14.21-85.85-21.82-121.15-18.95ZM918.77,587.03c-16.32-15.74-48.96-12.67-69.98-11.01-36.66,2.9-83.75,12.78-112.51,36.88-20.53,17.2-32.94,46.22-51.43,66.92-38.66,43.27-84.51,47.22-102.08,109.4-8.73,30.88-15.96,78.16-19.55,110.44-2.02,18.16-1.27,35.39,14.4,47.43,19.57,15.03,48.91,4.26,70.08-2.73,127.02-41.9,230.15-152.83,270.71-279.34,7.4-23.08,20.65-58.44.37-78.01Z"/>
  <path class="st0" d="M642.63,520.71v55.78c0,.75-7.67,4.08-8.64,11.72-1.42,11.12,6.32,12.57,6.7,16.42-1.77,14.78-7.29,31.13-8.61,45.7-.35,3.82-1.32,6.68,3.23,7.21,9.45,1.1,20.14-1.06,29.64-1.01,2.53-2.56-10.22-49.48-7.52-54.11.24-.41,1.83-.8,2.51-1.79,6.67-9.77,4.58-18.71-5.71-24.3l.06-59.97c.14-1.75,1.26-2.41,2.54-3.28,3.15-2.13,22.82-9.83,23.52-10.92.26-.4.26-2.29,0-2.7l-165.54-80.47-3.84.59c-47.03,23.88-94.93,45.99-142.26,69.24-1.97.97-23.69,11.35-22.93,12.46,56.11,26.84,111.95,54.26,167.5,82.26l129.35-62.84ZM609.65,556.61c-32.55,14.69-63.5,32.75-96.45,46.56l-95.63-46.56v57.72c0,9.29,24.73,25.66,32.62,29.47,40.74,19.71,99.69,18.25,138.04-6.27,5.87-3.75,21.42-15.94,21.42-23.2v-57.72Z"/>
  <path class="st0" d="M642.63,520.71l-129.35,62.84c-55.55-27.99-111.39-55.42-167.5-82.26-.76-1.11,20.96-11.49,22.93-12.46,47.33-23.26,95.24-45.36,142.26-69.24l3.84-.59,165.54,80.47c.26.41.26,2.29,0,2.7-.7,1.09-20.37,8.78-23.52,10.92-1.28.87-2.41,1.53-2.54,3.28l-.06,59.97c10.29,5.59,12.38,14.53,5.71,24.3-.68.99-2.27,1.37-2.51,1.79-2.69,4.63,10.06,51.55,7.52,54.11-9.5-.04-20.19,2.11-29.64,1.01-4.55-.53-3.57-3.39-3.23-7.21,1.32-14.57,6.84-30.92,8.61-45.7-.38-3.85-8.12-5.3-6.7-16.42.97-7.65,8.64-10.97,8.64-11.72v-55.78Z"/>
  <path class="st0" d="M609.65,556.61v57.72c0,7.26-15.55,19.45-21.42,23.2-38.35,24.52-97.3,25.98-138.04,6.27-7.88-3.81-32.62-20.18-32.62-29.47v-57.72l95.63,46.56c32.95-13.81,63.91-31.87,96.45-46.56Z"/>
</svg>